<?xml version="1.0" standalone="no"?>
<!DOCTYPE svg PUBLIC "-//W3C//DTD SVG 20010904//EN"
 "http://www.w3.org/TR/2001/REC-SVG-20010904/DTD/svg10.dtd">
<svg version="1.0" xmlns="http://www.w3.org/2000/svg"
 width="218.000000pt" height="218.000000pt" viewBox="0 0 218.000000 218.000000"
 preserveAspectRatio="xMidYMid meet">
<metadata>
Created by potrace 1.14, written by Peter Selinger 2001-2017
</metadata>
<g transform="translate(0.000000,218.000000) scale(0.100000,-0.100000)"
fill="#000000" stroke="none">
<path d="M885 2159 c-119 -24 -173 -42 -278 -94 -159 -79 -285 -185 -394 -332
-55 -74 -136 -227 -149 -278 -4 -17 -9 -34 -13 -40 -3 -5 -6 -14 -7 -20 -1 -5
-6 -28 -12 -50 -26 -97 -35 -292 -20 -415 49 -383 348 -742 723 -869 144 -48
200 -56 380 -55 161 2 272 26 416 89 332 146 574 461 633 821 14 83 16 330 3
351 -3 4 -8 24 -11 43 -38 234 -219 514 -430 665 -93 66 -239 138 -326 161
-170 44 -369 53 -515 23z"/>
</g>
</svg>
